<svg width="210" height="40" viewBox="0 0 210 40" fill="none" xmlns="http://www.w3.org/2000/svg">
<path d="M11.8707 13.382V26H20.5107V23.192H15.1647V13.382H11.8707ZM28.6913 20.708V13.382H25.3973V20.708C25.3973 24.038 27.6833 26.144 31.2473 26.144C34.7933 26.144 37.0253 24.038 37.0253 20.708V13.382H33.7313V20.708C33.7313 22.346 32.7233 23.336 31.2653 23.336C29.7713 23.336 28.6913 22.328 28.6913 20.708ZM51.2059 22.742C50.4499 23.12 49.6579 23.336 49.0279 23.336C46.9759 23.336 45.4279 21.77 45.4279 19.7C45.4279 17.648 46.9579 16.082 48.9919 16.082C50.1439 16.082 51.4219 16.622 52.3219 17.468L54.1939 15.164C52.8979 14.012 50.8999 13.292 49.0099 13.292C45.0139 13.292 42.0439 16.028 42.0439 19.7C42.0439 23.372 44.9419 26.144 48.7939 26.144C50.5579 26.144 52.6999 25.46 54.0499 24.524V19.556H51.2059V22.742ZM59.8308 13.382V26H69.9648V23.372H63.1248V20.996L69.1368 20.978V18.368H63.1248V16.01H69.7848V13.382H59.8308Z" fill="white"/>
<path d="M2.51953 14.5879H6.25195V16H0.761719V7.46875H2.51953V14.5879ZM10.8281 16C10.75 15.8477 10.6934 15.6582 10.6582 15.4316C10.248 15.8887 9.71484 16.1172 9.05859 16.1172C8.4375 16.1172 7.92188 15.9375 7.51172 15.5781C7.10547 15.2188 6.90234 14.7656 6.90234 14.2188C6.90234 13.5469 7.15039 13.0312 7.64648 12.6719C8.14648 12.3125 8.86719 12.1309 9.80859 12.127H10.5879V11.7637C10.5879 11.4707 10.5117 11.2363 10.3594 11.0605C10.2109 10.8848 9.97461 10.7969 9.65039 10.7969C9.36523 10.7969 9.14062 10.8652 8.97656 11.002C8.81641 11.1387 8.73633 11.3262 8.73633 11.5645H7.04297C7.04297 11.1973 7.15625 10.8574 7.38281 10.5449C7.60938 10.2324 7.92969 9.98828 8.34375 9.8125C8.75781 9.63281 9.22266 9.54297 9.73828 9.54297C10.5195 9.54297 11.1387 9.74023 11.5957 10.1348C12.0566 10.5254 12.2871 11.0762 12.2871 11.7871V14.5352C12.291 15.1367 12.375 15.5918 12.5391 15.9004V16H10.8281ZM9.42773 14.8223C9.67773 14.8223 9.9082 14.7676 10.1191 14.6582C10.3301 14.5449 10.4863 14.3945 10.5879 14.207V13.1172H9.95508C9.10742 13.1172 8.65625 13.4102 8.60156 13.9961L8.5957 14.0957C8.5957 14.3066 8.66992 14.4805 8.81836 14.6172C8.9668 14.7539 9.16992 14.8223 9.42773 14.8223ZM15.1465 9.66016L15.1992 10.3926C15.6523 9.82617 16.2598 9.54297 17.0215 9.54297C17.6934 9.54297 18.1934 9.74023 18.5215 10.1348C18.8496 10.5293 19.0176 11.1191 19.0254 11.9043V16H17.332V11.9453C17.332 11.5859 17.2539 11.3262 17.0977 11.166C16.9414 11.002 16.6816 10.9199 16.3184 10.9199C15.8418 10.9199 15.4844 11.123 15.2461 11.5293V16H13.5527V9.66016H15.1465ZM20.0508 12.7832C20.0508 11.7949 20.2715 11.0078 20.7129 10.4219C21.1582 9.83594 21.7656 9.54297 22.5352 9.54297C23.1523 9.54297 23.6621 9.77344 24.0645 10.2344V7H25.7637V16H24.2344L24.1523 15.3262C23.7305 15.8535 23.1875 16.1172 22.5234 16.1172C21.7773 16.1172 21.1777 15.8242 20.7246 15.2383C20.2754 14.6484 20.0508 13.8301 20.0508 12.7832ZM21.7441 12.9062C21.7441 13.5 21.8477 13.9551 22.0547 14.2715C22.2617 14.5879 22.5625 14.7461 22.957 14.7461C23.4805 14.7461 23.8496 14.5254 24.0645 14.084V11.582C23.8535 11.1406 23.4883 10.9199 22.9688 10.9199C22.1523 10.9199 21.7441 11.582 21.7441 12.9062ZM36.6328 7.46875V13.0879C36.6328 14.0215 36.3398 14.7598 35.7539 15.3027C35.1719 15.8457 34.375 16.1172 33.3633 16.1172C32.3672 16.1172 31.5762 15.8535 30.9902 15.3262C30.4043 14.7988 30.1055 14.0742 30.0938 13.1523V7.46875H31.8516V13.0996C31.8516 13.6582 31.9844 14.0664 32.25 14.3242C32.5195 14.5781 32.8906 14.7051 33.3633 14.7051C34.3516 14.7051 34.8535 14.1855 34.8691 13.1465V7.46875H36.6328ZM41.3965 14.248C41.3965 14.041 41.293 13.8789 41.0859 13.7617C40.8828 13.6406 40.5547 13.5332 40.1016 13.4395C38.5938 13.123 37.8398 12.4824 37.8398 11.5176C37.8398 10.9551 38.0723 10.4863 38.5371 10.1113C39.0059 9.73242 39.6172 9.54297 40.3711 9.54297C41.1758 9.54297 41.8184 9.73242 42.2988 10.1113C42.7832 10.4902 43.0254 10.9824 43.0254 11.5879H41.332C41.332 11.3457 41.2539 11.1465 41.0977 10.9902C40.9414 10.8301 40.6973 10.75 40.3652 10.75C40.0801 10.75 39.8594 10.8145 39.7031 10.9434C39.5469 11.0723 39.4688 11.2363 39.4688 11.4355C39.4688 11.623 39.5566 11.7754 39.7324 11.8926C39.9121 12.0059 40.2129 12.1055 40.6348 12.1914C41.0566 12.2734 41.4121 12.3672 41.7012 12.4727C42.5957 12.8008 43.043 13.3691 43.043 14.1777C43.043 14.7559 42.7949 15.2246 42.2988 15.584C41.8027 15.9395 41.1621 16.1172 40.377 16.1172C39.8457 16.1172 39.373 16.0234 38.959 15.8359C38.5488 15.6445 38.2266 15.3848 37.9922 15.0566C37.7578 14.7246 37.6406 14.3672 37.6406 13.9844H39.2461C39.2617 14.2852 39.373 14.5156 39.5801 14.6758C39.7871 14.8359 40.0645 14.916 40.4121 14.916C40.7363 14.916 40.9805 14.8555 41.1445 14.7344C41.3125 14.6094 41.3965 14.4473 41.3965 14.248ZM47.0566 16.1172C46.127 16.1172 45.3691 15.832 44.7832 15.2617C44.2012 14.6914 43.9102 13.9316 43.9102 12.9824V12.8184C43.9102 12.1816 44.0332 11.6133 44.2793 11.1133C44.5254 10.6094 44.873 10.2227 45.3223 9.95312C45.7754 9.67969 46.291 9.54297 46.8691 9.54297C47.7363 9.54297 48.418 9.81641 48.9141 10.3633C49.4141 10.9102 49.6641 11.6855 49.6641 12.6895V13.3809H45.627C45.6816 13.7949 45.8457 14.127 46.1191 14.377C46.3965 14.627 46.7461 14.752 47.168 14.752C47.8203 14.752 48.3301 14.5156 48.6973 14.043L49.5293 14.9746C49.2754 15.334 48.9316 15.6152 48.498 15.8184C48.0645 16.0176 47.584 16.1172 47.0566 16.1172ZM46.8633 10.9141C46.5273 10.9141 46.2539 11.0273 46.043 11.2539C45.8359 11.4805 45.7031 11.8047 45.6445 12.2266H48V12.0918C47.9922 11.7168 47.8906 11.4277 47.6953 11.2246C47.5 11.0176 47.2227 10.9141 46.8633 10.9141ZM57.293 16C57.2148 15.8477 57.1582 15.6582 57.123 15.4316C56.7129 15.8887 56.1797 16.1172 55.5234 16.1172C54.9023 16.1172 54.3867 15.9375 53.9766 15.5781C53.5703 15.2188 53.3672 14.7656 53.3672 14.2188C53.3672 13.5469 53.6152 13.0312 54.1113 12.6719C54.6113 12.3125 55.332 12.1309 56.2734 12.127H57.0527V11.7637C57.0527 11.4707 56.9766 11.2363 56.8242 11.0605C56.6758 10.8848 56.4395 10.7969 56.1152 10.7969C55.8301 10.7969 55.6055 10.8652 55.4414 11.002C55.2812 11.1387 55.2012 11.3262 55.2012 11.5645H53.5078C53.5078 11.1973 53.6211 10.8574 53.8477 10.5449C54.0742 10.2324 54.3945 9.98828 54.8086 9.8125C55.2227 9.63281 55.6875 9.54297 56.2031 9.54297C56.9844 9.54297 57.6035 9.74023 58.0605 10.1348C58.5215 10.5254 58.752 11.0762 58.752 11.7871V14.5352C58.7559 15.1367 58.8398 15.5918 59.0039 15.9004V16H57.293ZM55.8926 14.8223C56.1426 14.8223 56.373 14.7676 56.584 14.6582C56.7949 14.5449 56.9512 14.3945 57.0527 14.207V13.1172H56.4199C55.5723 13.1172 55.1211 13.4102 55.0664 13.9961L55.0605 14.0957C55.0605 14.3066 55.1348 14.4805 55.2832 14.6172C55.4316 14.7539 55.6348 14.8223 55.8926 14.8223ZM61.6113 9.66016L61.6641 10.3926C62.1172 9.82617 62.7246 9.54297 63.4863 9.54297C64.1582 9.54297 64.6582 9.74023 64.9863 10.1348C65.3145 10.5293 65.4824 11.1191 65.4902 11.9043V16H63.7969V11.9453C63.7969 11.5859 63.7188 11.3262 63.5625 11.166C63.4062 11.002 63.1465 10.9199 62.7832 10.9199C62.3066 10.9199 61.9492 11.123 61.7109 11.5293V16H60.0176V9.66016H61.6113ZM66.5156 12.7832C66.5156 11.7949 66.7363 11.0078 67.1777 10.4219C67.623 9.83594 68.2305 9.54297 69 9.54297C69.6172 9.54297 70.127 9.77344 70.5293 10.2344V7H72.2285V16H70.6992L70.6172 15.3262C70.1953 15.8535 69.6523 16.1172 68.9883 16.1172C68.2422 16.1172 67.6426 15.8242 67.1895 15.2383C66.7402 14.6484 66.5156 13.8301 66.5156 12.7832ZM68.209 12.9062C68.209 13.5 68.3125 13.9551 68.5195 14.2715C68.7266 14.5879 69.0273 14.7461 69.4219 14.7461C69.9453 14.7461 70.3145 14.5254 70.5293 14.084V11.582C70.3184 11.1406 69.9531 10.9199 69.4336 10.9199C68.6172 10.9199 68.209 11.582 68.209 12.9062ZM7.51172 31.9219C7.19531 32.3008 6.74805 32.5957 6.16992 32.8066C5.5918 33.0137 4.95117 33.1172 4.24805 33.1172C3.50977 33.1172 2.86133 32.957 2.30273 32.6367C1.74805 32.3125 1.31836 31.8438 1.01367 31.2305C0.712891 30.6172 0.558594 29.8965 0.550781 29.0684V28.4883C0.550781 27.6367 0.693359 26.9004 0.978516 26.2793C1.26758 25.6543 1.68164 25.1777 2.2207 24.8496C2.76367 24.5176 3.39844 24.3516 4.125 24.3516C5.13672 24.3516 5.92773 24.5938 6.49805 25.0781C7.06836 25.5586 7.40625 26.2598 7.51172 27.1816H5.80078C5.72266 26.6934 5.54883 26.3359 5.2793 26.1094C5.01367 25.8828 4.64648 25.7695 4.17773 25.7695C3.58008 25.7695 3.125 25.9941 2.8125 26.4434C2.5 26.8926 2.3418 27.5605 2.33789 28.4473V28.9922C2.33789 29.8867 2.50781 30.5625 2.84766 31.0195C3.1875 31.4766 3.68555 31.7051 4.3418 31.7051C5.00195 31.7051 5.47266 31.5645 5.75391 31.2832V29.8125H4.1543V28.5176H7.51172V31.9219ZM10.6172 33H8.91797V24H10.6172V33ZM11.7539 29.7715C11.7539 29.1426 11.875 28.582 12.1172 28.0898C12.3594 27.5977 12.707 27.2168 13.1602 26.9473C13.6172 26.6777 14.1465 26.543 14.748 26.543C15.6035 26.543 16.3008 26.8047 16.8398 27.3281C17.3828 27.8516 17.6855 28.5625 17.748 29.4609L17.7598 29.8945C17.7598 30.8672 17.4883 31.6484 16.9453 32.2383C16.4023 32.8242 15.6738 33.1172 14.7598 33.1172C13.8457 33.1172 13.1152 32.8242 12.5684 32.2383C12.0254 31.6523 11.7539 30.8555 11.7539 29.8477V29.7715ZM13.4473 29.8945C13.4473 30.4961 13.5605 30.957 13.7871 31.2773C14.0137 31.5938 14.3379 31.752 14.7598 31.752C15.1699 31.752 15.4902 31.5957 15.7207 31.2832C15.9512 30.9668 16.0664 30.4629 16.0664 29.7715C16.0664 29.1816 15.9512 28.7246 15.7207 28.4004C15.4902 28.0762 15.166 27.9141 14.748 27.9141C14.334 27.9141 14.0137 28.0762 13.7871 28.4004C13.5605 28.7207 13.4473 29.2188 13.4473 29.8945ZM24.5156 29.8887C24.5156 30.9043 24.2988 31.6973 23.8652 32.2676C23.4316 32.834 22.8262 33.1172 22.0488 33.1172C21.3613 33.1172 20.8125 32.8535 20.4023 32.3262L20.3262 33H18.8027V24H20.4961V27.2285C20.8867 26.7715 21.4004 26.543 22.0371 26.543C22.8105 26.543 23.416 26.8281 23.8535 27.3984C24.2949 27.9648 24.5156 28.7637 24.5156 29.7949V29.8887ZM22.8223 29.7656C22.8223 29.125 22.7207 28.6582 22.5176 28.3652C22.3145 28.0684 22.0117 27.9199 21.6094 27.9199C21.0703 27.9199 20.6992 28.1406 20.4961 28.582V31.084C20.7031 31.5293 21.0781 31.752 21.6211 31.752C22.168 31.752 22.5273 31.4824 22.6992 30.9434C22.7812 30.6855 22.8223 30.293 22.8223 29.7656ZM29.2383 33C29.1602 32.8477 29.1035 32.6582 29.0684 32.4316C28.6582 32.8887 28.125 33.1172 27.4688 33.1172C26.8477 33.1172 26.332 32.9375 25.9219 32.5781C25.5156 32.2188 25.3125 31.7656 25.3125 31.2188C25.3125 30.5469 25.5605 30.0312 26.0566 29.6719C26.5566 29.3125 27.2773 29.1309 28.2188 29.127H28.998V28.7637C28.998 28.4707 28.9219 28.2363 28.7695 28.0605C28.6211 27.8848 28.3848 27.7969 28.0605 27.7969C27.7754 27.7969 27.5508 27.8652 27.3867 28.002C27.2266 28.1387 27.1465 28.3262 27.1465 28.5645H25.4531C25.4531 28.1973 25.5664 27.8574 25.793 27.5449C26.0195 27.2324 26.3398 26.9883 26.7539 26.8125C27.168 26.6328 27.6328 26.543 28.1484 26.543C28.9297 26.543 29.5488 26.7402 30.0059 27.1348C30.4668 27.5254 30.6973 28.0762 30.6973 28.7871V31.5352C30.7012 32.1367 30.7852 32.5918 30.9492 32.9004V33H29.2383ZM27.8379 31.8223C28.0879 31.8223 28.3184 31.7676 28.5293 31.6582C28.7402 31.5449 28.8965 31.3945 28.998 31.207V30.1172H28.3652C27.5176 30.1172 27.0664 30.4102 27.0117 30.9961L27.0059 31.0957C27.0059 31.3066 27.0801 31.4805 27.2285 31.6172C27.377 31.7539 27.5801 31.8223 27.8379 31.8223ZM33.7852 33H32.0859V24H33.7852V33ZM43.418 29.3027H40.043V31.5879H44.0039V33H38.2852V24.4688H43.9922V25.8926H40.043V27.9258H43.418V29.3027ZM46.4824 26.6602L46.5352 27.3926C46.9883 26.8262 47.5957 26.543 48.3574 26.543C49.0293 26.543 49.5293 26.7402 49.8574 27.1348C50.1855 27.5293 50.3535 28.1191 50.3613 28.9043V33H48.668V28.9453C48.668 28.5859 48.5898 28.3262 48.4336 28.166C48.2773 28.002 48.0176 27.9199 47.6543 27.9199C47.1777 27.9199 46.8203 28.123 46.582 28.5293V33H44.8887V26.6602H46.4824ZM54.0234 30.9316L55.2012 26.6602H56.9707L54.832 33H53.2148L51.0762 26.6602H52.8457L54.0234 30.9316ZM59.5078 33H57.8086V26.6602H59.5078V33ZM57.709 25.0195C57.709 24.7656 57.793 24.5566 57.9609 24.3926C58.1328 24.2285 58.3652 24.1465 58.6582 24.1465C58.9473 24.1465 59.1777 24.2285 59.3496 24.3926C59.5215 24.5566 59.6074 24.7656 59.6074 25.0195C59.6074 25.2773 59.5195 25.4883 59.3438 25.6523C59.1719 25.8164 58.9434 25.8984 58.6582 25.8984C58.373 25.8984 58.1426 25.8164 57.9668 25.6523C57.7949 25.4883 57.709 25.2773 57.709 25.0195ZM64.4707 28.248C64.2402 28.2168 64.0371 28.2012 63.8613 28.2012C63.2207 28.2012 62.8008 28.418 62.6016 28.8516V33H60.9082V26.6602H62.5078L62.5547 27.416C62.8945 26.834 63.3652 26.543 63.9668 26.543C64.1543 26.543 64.3301 26.5684 64.4941 26.6191L64.4707 28.248ZM64.8164 29.7715C64.8164 29.1426 64.9375 28.582 65.1797 28.0898C65.4219 27.5977 65.7695 27.2168 66.2227 26.9473C66.6797 26.6777 67.209 26.543 67.8105 26.543C68.666 26.543 69.3633 26.8047 69.9023 27.3281C70.4453 27.8516 70.748 28.5625 70.8105 29.4609L70.8223 29.8945C70.8223 30.8672 70.5508 31.6484 70.0078 32.2383C69.4648 32.8242 68.7363 33.1172 67.8223 33.1172C66.9082 33.1172 66.1777 32.8242 65.6309 32.2383C65.0879 31.6523 64.8164 30.8555 64.8164 29.8477V29.7715ZM66.5098 29.8945C66.5098 30.4961 66.623 30.957 66.8496 31.2773C67.0762 31.5938 67.4004 31.752 67.8223 31.752C68.2324 31.752 68.5527 31.5957 68.7832 31.2832C69.0137 30.9668 69.1289 30.4629 69.1289 29.7715C69.1289 29.1816 69.0137 28.7246 68.7832 28.4004C68.5527 28.0762 68.2285 27.9141 67.8105 27.9141C67.3965 27.9141 67.0762 28.0762 66.8496 28.4004C66.623 28.7207 66.5098 29.2188 66.5098 29.8945ZM73.4238 26.6602L73.4766 27.3926C73.9297 26.8262 74.5371 26.543 75.2988 26.543C75.9707 26.543 76.4707 26.7402 76.7988 27.1348C77.127 27.5293 77.2949 28.1191 77.3027 28.9043V33H75.6094V28.9453C75.6094 28.5859 75.5312 28.3262 75.375 28.166C75.2188 28.002 74.959 27.9199 74.5957 27.9199C74.1191 27.9199 73.7617 28.123 73.5234 28.5293V33H71.8301V26.6602H73.4238ZM80.1797 26.6602L80.2324 27.3691C80.6816 26.8184 81.2891 26.543 82.0547 26.543C82.8711 26.543 83.4316 26.8652 83.7363 27.5098C84.1816 26.8652 84.8164 26.543 85.6406 26.543C86.3281 26.543 86.8398 26.7441 87.1758 27.1465C87.5117 27.5449 87.6797 28.1465 87.6797 28.9512V33H85.9805V28.957C85.9805 28.5977 85.9102 28.3359 85.7695 28.1719C85.6289 28.0039 85.3809 27.9199 85.0254 27.9199C84.5176 27.9199 84.166 28.1621 83.9707 28.6465L83.9766 33H82.2832V28.9629C82.2832 28.5957 82.2109 28.3301 82.0664 28.166C81.9219 28.002 81.6758 27.9199 81.3281 27.9199C80.8477 27.9199 80.5 28.1191 80.2852 28.5176V33H78.5918V26.6602H80.1797ZM91.9043 33.1172C90.9746 33.1172 90.2168 32.832 89.6309 32.2617C89.0488 31.6914 88.7578 30.9316 88.7578 29.9824V29.8184C88.7578 29.1816 88.8809 28.6133 89.127 28.1133C89.373 27.6094 89.7207 27.2227 90.1699 26.9531C90.623 26.6797 91.1387 26.543 91.7168 26.543C92.584 26.543 93.2656 26.8164 93.7617 27.3633C94.2617 27.9102 94.5117 28.6855 94.5117 29.6895V30.3809H90.4746C90.5293 30.7949 90.6934 31.127 90.9668 31.377C91.2441 31.627 91.5938 31.752 92.0156 31.752C92.668 31.752 93.1777 31.5156 93.5449 31.043L94.377 31.9746C94.123 32.334 93.7793 32.6152 93.3457 32.8184C92.9121 33.0176 92.4316 33.1172 91.9043 33.1172ZM91.7109 27.9141C91.375 27.9141 91.1016 28.0273 90.8906 28.2539C90.6836 28.4805 90.5508 28.8047 90.4922 29.2266H92.8477V29.0918C92.8398 28.7168 92.7383 28.4277 92.543 28.2246C92.3477 28.0176 92.0703 27.9141 91.7109 27.9141ZM97.0371 26.6602L97.0898 27.3926C97.543 26.8262 98.1504 26.543 98.9121 26.543C99.584 26.543 100.084 26.7402 100.412 27.1348C100.74 27.5293 100.908 28.1191 100.916 28.9043V33H99.2227V28.9453C99.2227 28.5859 99.1445 28.3262 98.9883 28.166C98.832 28.002 98.5723 27.9199 98.209 27.9199C97.7324 27.9199 97.375 28.123 97.1367 28.5293V33H95.4434V26.6602H97.0371ZM104.232 25.1016V26.6602H105.316V27.9023H104.232V31.0664C104.232 31.3008 104.277 31.4688 104.367 31.5703C104.457 31.6719 104.629 31.7227 104.883 31.7227C105.07 31.7227 105.236 31.709 105.381 31.6816V32.9648C105.049 33.0664 104.707 33.1172 104.355 33.1172C103.168 33.1172 102.562 32.5176 102.539 31.3184V27.9023H101.613V26.6602H102.539V25.1016H104.232Z" transform="translate(95)" fill="#2F80ED"/>
</svg>
