<svg width="163" height="38" viewBox="0 0 163 38" fill="none" xmlns="http://www.w3.org/2000/svg">
<path d="M0 0.144001V2.8H3.248V11.36H6.592V2.8H9.856V0.144001H0Z" transform="translate(0.0961914 0.640137)" fill="#333333"/>
<path d="M10.8949 0.144001V11.36H14.2229V7.184H18.2069V11.36H21.5349V0.144001H18.2069V4.608H14.2229V0.144001H10.8949Z" transform="translate(0.0961914 0.640137)" fill="#333333"/>
<path d="M23.4261 0.144001V11.36H32.7541V8.8H26.7541V7.024H32.0501V4.464H26.7541V2.704H32.5941V0.144001H23.4261Z" transform="translate(0.0961914 0.640137)" fill="#333333"/>
<path d="M47.2569 4.304L49.1769 2.032C48.0409 0.816002 46.2329 0.0480003 44.5369 0.0480003C41.0649 0.0480003 38.5049 2.464 38.5049 5.728C38.5049 9.04 41.0169 11.504 44.4249 11.504C46.1209 11.504 47.9609 10.656 49.1769 9.344L47.2569 7.296C46.4889 8.08 45.4489 8.592 44.5849 8.592C43.0649 8.592 41.9129 7.344 41.9129 5.696C41.9129 4.048 43.0649 2.816 44.5849 2.816C45.5129 2.816 46.5529 3.408 47.2569 4.304Z" transform="translate(0.0961914 0.640137)" fill="#333333"/>
<path d="M55.4919 0.0480003C51.9719 0.0480003 49.3799 2.448 49.3799 5.744C49.3799 9.056 51.9719 11.504 55.4919 11.504C59.0119 11.504 61.6039 9.04 61.6039 5.744C61.6039 2.464 59.0119 0.0480003 55.4919 0.0480003ZM55.5399 2.832C57.0119 2.832 58.1959 4.064 58.1959 5.76C58.1959 7.456 57.0119 8.72 55.5399 8.72C54.0679 8.72 52.7879 7.456 52.7879 5.76C52.7879 4.064 54.0519 2.832 55.5399 2.832Z" transform="translate(0.0961914 0.640137)" fill="#333333"/>
<path d="M62.848 0.144001V11.36H70.88V8.576H66.176V0.144001H62.848Z" transform="translate(0.0961914 0.640137)" fill="#333333"/>
<path d="M77.5075 0.0480003C73.9875 0.0480003 71.3955 2.448 71.3955 5.744C71.3955 9.056 73.9875 11.504 77.5075 11.504C81.0275 11.504 83.6195 9.04 83.6195 5.744C83.6195 2.464 81.0275 0.0480003 77.5075 0.0480003ZM77.5555 2.832C79.0275 2.832 80.2115 4.064 80.2115 5.76C80.2115 7.456 79.0275 8.72 77.5555 8.72C76.0835 8.72 74.8035 7.456 74.8035 5.76C74.8035 4.064 76.0675 2.832 77.5555 2.832Z" transform="translate(0.0961914 0.640137)" fill="#333333"/>
<path d="M88.0156 6.624V0.144001H84.6876V6.624C84.6876 9.6 86.7836 11.504 89.9996 11.504C93.1996 11.504 95.2316 9.6 95.2316 6.624V0.144001H91.9036V6.624C91.9036 7.936 91.1196 8.72 90.0156 8.72C88.8956 8.72 88.0156 7.92 88.0156 6.624Z" transform="translate(0.0961914 0.640137)" fill="#333333"/>
<path d="M107.294 11.36L105.022 7.696C106.238 7.008 106.91 5.792 106.91 4.128C106.91 1.584 105.182 0.144001 102.174 0.144001H96.9417V11.36H100.27V8.336H102.03L103.518 11.36H107.294ZM100.27 2.704H102.174C103.166 2.704 103.742 3.248 103.742 4.224C103.742 5.232 103.166 5.776 102.174 5.776H100.27V2.704Z" transform="translate(0.0961914 0.640137)" fill="#333333"/>
<path d="M116.6 3.856L117.831 1.296C116.615 0.512002 114.856 0 113.144 0C110.344 0 108.504 1.376 108.504 3.536C108.504 7.488 114.359 6.416 114.359 8.112C114.359 8.624 113.911 8.864 113.207 8.864C112.055 8.864 110.184 8.128 109.032 7.152L107.784 9.68C109.192 10.784 111.271 11.456 113.175 11.456C115.687 11.456 117.799 10.32 117.799 7.936C117.799 3.888 111.943 4.864 111.943 3.216C111.943 2.8 112.311 2.608 112.871 2.608C113.815 2.608 115.448 3.2 116.6 3.856Z" transform="translate(0.0961914 0.640137)" fill="#333333"/>
<path d="M6.32 16.048C2.8 16.048 0.208 18.448 0.208 21.744C0.208 25.056 2.8 27.504 6.32 27.504C9.84 27.504 12.432 25.04 12.432 21.744C12.432 18.464 9.84 16.048 6.32 16.048ZM6.368 18.832C7.84 18.832 9.024 20.064 9.024 21.76C9.024 23.456 7.84 24.72 6.368 24.72C4.896 24.72 3.616 23.456 3.616 21.76C3.616 20.064 4.88 18.832 6.368 18.832Z" transform="translate(0.0961914 0.640137)" fill="#333333"/>
<path d="M13.6761 16.144V27.36H17.0041V23.504H21.9961V20.944H17.0041V18.704H22.3801V16.144H13.6761Z" transform="translate(0.0961914 0.640137)" fill="#333333"/>
<path d="M28.3792 16.144V27.36H31.7072V23.504H36.6992V20.944H31.7072V18.704H37.0832V16.144H28.3792Z" transform="translate(0.0961914 0.640137)" fill="#333333"/>
<path d="M43.7575 16.048C40.2375 16.048 37.6455 18.448 37.6455 21.744C37.6455 25.056 40.2375 27.504 43.7575 27.504C47.2775 27.504 49.8695 25.04 49.8695 21.744C49.8695 18.464 47.2775 16.048 43.7575 16.048ZM43.8055 18.832C45.2775 18.832 46.4615 20.064 46.4615 21.76C46.4615 23.456 45.2775 24.72 43.8055 24.72C42.3335 24.72 41.0535 23.456 41.0535 21.76C41.0535 20.064 42.3175 18.832 43.8055 18.832Z" transform="translate(0.0961914 0.640137)" fill="#333333"/>
<path d="M56.4919 16.048C52.9719 16.048 50.3799 18.448 50.3799 21.744C50.3799 25.056 52.9719 27.504 56.4919 27.504C60.0119 27.504 62.6039 25.04 62.6039 21.744C62.6039 18.464 60.0119 16.048 56.4919 16.048ZM56.5399 18.832C58.0119 18.832 59.1959 20.064 59.1959 21.76C59.1959 23.456 58.0119 24.72 56.5399 24.72C55.0679 24.72 53.7879 23.456 53.7879 21.76C53.7879 20.064 55.0519 18.832 56.5399 18.832Z" transform="translate(0.0961914 0.640137)" fill="#333333"/>
<path d="M68.76 16.144H63.848V27.36H68.648C72.344 27.36 74.792 25.12 74.792 21.744C74.792 18.368 72.392 16.144 68.76 16.144ZM68.856 24.752H67.176V18.768H68.696C70.296 18.768 71.4 19.968 71.4 21.776C71.4 23.568 70.376 24.752 68.856 24.752Z" transform="translate(0.0961914 0.640137)" fill="#333333"/>
<path d="M88.8964 19.856L90.1284 17.296C88.9124 16.512 87.1524 16 85.4404 16C82.6404 16 80.8004 17.376 80.8004 19.536C80.8004 23.488 86.6564 22.416 86.6564 24.112C86.6564 24.624 86.2084 24.864 85.5044 24.864C84.3524 24.864 82.4804 24.128 81.3284 23.152L80.0804 25.68C81.4884 26.784 83.5684 27.456 85.4724 27.456C87.9844 27.456 90.0964 26.32 90.0964 23.936C90.0964 19.888 84.2404 20.864 84.2404 19.216C84.2404 18.8 84.6084 18.608 85.1684 18.608C86.1124 18.608 87.7444 19.2 88.8964 19.856Z" transform="translate(0.0961914 0.640137)" fill="#333333"/>
<path d="M91.3167 16.144V27.36H100.645V24.8H94.6448V23.024H99.9408V20.464H94.6448V18.704H100.485V16.144H91.3167Z" transform="translate(0.0961914 0.640137)" fill="#333333"/>
<path d="M110.351 20.304L112.271 18.032C111.135 16.816 109.327 16.048 107.631 16.048C104.159 16.048 101.599 18.464 101.599 21.728C101.599 25.04 104.111 27.504 107.519 27.504C109.215 27.504 111.055 26.656 112.271 25.344L110.351 23.296C109.583 24.08 108.543 24.592 107.679 24.592C106.159 24.592 105.007 23.344 105.007 21.696C105.007 20.048 106.159 18.816 107.679 18.816C108.607 18.816 109.647 19.408 110.351 20.304Z" transform="translate(0.0961914 0.640137)" fill="#333333"/>
<path d="M116.438 22.624V16.144H113.109V22.624C113.109 25.6 115.206 27.504 118.422 27.504C121.622 27.504 123.653 25.6 123.653 22.624V16.144H120.326V22.624C120.326 23.936 119.541 24.72 118.438 24.72C117.317 24.72 116.438 23.92 116.438 22.624Z" transform="translate(0.0961914 0.640137)" fill="#333333"/>
<path d="M135.716 27.36L133.444 23.696C134.66 23.008 135.332 21.792 135.332 20.128C135.332 17.584 133.604 16.144 130.596 16.144H125.364V27.36H128.692V24.336H130.452L131.94 27.36H135.716ZM128.692 18.704H130.596C131.588 18.704 132.164 19.248 132.164 20.224C132.164 21.232 131.588 21.776 130.596 21.776H128.692V18.704Z" transform="translate(0.0961914 0.640137)" fill="#333333"/>
<path d="M136.957 16.144V27.36H140.285V16.144H136.957Z" transform="translate(0.0961914 0.640137)" fill="#333333"/>
<path d="M141.328 16.144V18.8H144.576V27.36H147.92V18.8H151.184V16.144H141.328Z" transform="translate(0.0961914 0.640137)" fill="#333333"/>
<path d="M162.623 16.144H159.311L156.927 20.72L154.479 16.144H151.151L155.263 23.872V27.36H158.591V23.808L162.623 16.144Z" transform="translate(0.0961914 0.640137)" fill="#333333"/>
<rect width="37" height="2" transform="translate(0 36)" fill="#4B66A0"/>
<rect width="37" height="2" transform="translate(42 36)" fill="#B2423E"/>
<rect width="37" height="2" transform="translate(83 36)" fill="#D99A50"/>
<rect width="37" height="2" transform="translate(125 36)" fill="#6D9A56"/>
</svg>
